<?xml version="1.0" standalone="no"?>
<!DOCTYPE svg PUBLIC "-//W3C//DTD SVG 20010904//EN"
 "http://www.w3.org/TR/2001/REC-SVG-20010904/DTD/svg10.dtd">
<svg version="1.0" xmlns="http://www.w3.org/2000/svg"
 width="900.000000pt" height="803.000000pt" viewBox="0 0 900.000000 803.000000"
 preserveAspectRatio="xMidYMid meet">
<metadata>
Created by potrace 1.15, written by Peter Selinger 2001-2017
</metadata>
<g transform="translate(0.000000,803.000000) scale(0.100000,-0.100000)"
fill="#000000" stroke="none">
<path d="M1372 7504 c-83 -225 -154 -498 -191 -734 -61 -390 -93 -939 -58
-1022 l15 -35 -51 -59 c-319 -372 -506 -799 -569 -1294 -17 -135 -17 -578 1
-770 54 -614 258 -1215 537 -1590 153 -207 314 -364 543 -534 459 -339 871
-486 1603 -570 146 -17 836 -37 1298 -37 374 0 1136 19 1244 31 633 70 1030
185 1386 400 367 221 666 494 860 783 168 250 336 675 414 1043 74 355 106
849 75 1184 -43 481 -240 955 -547 1320 -52 62 -77 99 -71 106 21 26 29 168
19 339 -33 571 -94 936 -220 1315 -56 169 -85 240 -99 240 -27 0 -337 -74
-416 -99 -408 -131 -945 -399 -1423 -712 l-133 -87 -52 14 c-450 116 -1505
122 -2029 10 l-107 -23 -118 79 c-492 331 -985 587 -1370 711 -157 51 -344 95
-436 103 l-62 6 -43 -118z m1973 -3149 c132 -8 328 -22 435 -30 531 -41 852
-39 1445 5 1118 84 1390 43 1735 -261 314 -277 470 -629 470 -1064 0 -490
-130 -884 -378 -1146 -294 -313 -889 -503 -1806 -579 -335 -28 -1170 -28
-1502 0 -632 53 -1122 164 -1459 332 -464 231 -705 709 -705 1397 0 415 125
734 392 1001 164 165 338 255 594 310 245 52 394 59 779 35z"/>
<path d="M3055 3680 c-214 -32 -387 -215 -471 -496 -32 -110 -44 -315 -25
-445 37 -247 181 -477 352 -563 314 -157 627 46 746 484 14 51 18 103 17 245
0 215 -15 283 -95 442 -121 242 -314 364 -524 333z"/>
<path d="M5823 3680 c-201 -29 -369 -190 -457 -438 -82 -230 -70 -535 29 -749
91 -197 228 -322 393 -359 171 -38 334 24 460 176 63 77 143 237 167 334 67
278 20 583 -123 792 -44 65 -138 158 -192 191 -74 45 -184 66 -277 53z"/>
</g>
</svg>
